<svg xmlns="http://www.w3.org/2000/svg" width="24" height="24" viewBox="0 0 24 24" fill="none">
  <path d="M8.6986 20.5252L8.71931 20.5142C8.70607 20.4892 8.69953 20.4611 8.70035 20.4328C8.70116 20.4045 8.7093 20.3768 8.72396 20.3526C8.73862 20.3284 8.75931 20.3083 8.78401 20.2944C8.80871 20.2806 8.83659 20.2733 8.86492 20.2734H8.865H15.1359C15.1643 20.2734 15.1921 20.2807 15.2167 20.2946C15.2414 20.3085 15.262 20.3285 15.2766 20.3528C15.2912 20.377 15.2993 20.4046 15.3001 20.4329C15.3009 20.4611 15.2944 20.4891 15.2812 20.5141C14.9623 21.1069 14.4889 21.6023 13.9112 21.9478C13.3335 22.2933 12.6731 22.476 12 22.4766C11.3269 22.4759 10.6666 22.2932 10.089 21.9477C9.51144 21.6022 9.03811 21.1068 8.71924 20.5141L8.6986 20.5252ZM8.6986 20.5252C9.01947 21.1216 9.49578 21.6201 10.077 21.9678C10.6582 22.3155 11.3227 22.4994 12 22.5L15.3019 20.5252C15.317 20.4966 15.3245 20.4646 15.3236 20.4322C15.3226 20.3999 15.3134 20.3684 15.2967 20.3407C15.28 20.313 15.2564 20.2901 15.2282 20.2742C15.2001 20.2583 15.1683 20.25 15.1359 20.25H8.865C8.83262 20.2499 8.80077 20.2582 8.77253 20.274C8.7443 20.2899 8.72066 20.3128 8.7039 20.3405C8.68715 20.3682 8.67785 20.3997 8.67692 20.4321C8.67599 20.4645 8.68346 20.4965 8.6986 20.5252ZM20.3815 15.7359L20.3815 15.7359C20.417 15.7787 20.4533 15.8229 20.49 15.8675C20.53 15.9161 20.5704 15.9653 20.6107 16.0139C20.8089 16.2532 20.9342 16.5443 20.972 16.8528C21.0098 17.1612 20.9583 17.474 20.8237 17.7541L20.8237 17.7541C20.5376 18.3522 19.9339 18.7252 19.2422 18.7252H4.76297C4.06793 18.7252 3.46005 18.3516 3.17493 17.7509L3.17489 17.7508C3.0409 17.4708 2.98992 17.1583 3.028 16.8502C3.06608 16.5421 3.19162 16.2514 3.38976 16.0125L3.3899 16.0123C3.45801 15.9286 3.52503 15.8478 3.59106 15.7682C3.60039 15.7569 3.6097 15.7457 3.61898 15.7345L3.61899 15.7345L3.61915 15.7343C4.13505 15.1116 4.55133 14.6091 4.83762 13.8194C5.12376 13.0301 5.27953 11.9555 5.27953 10.1883C5.27953 8.58822 5.60001 7.2694 6.2486 6.21543C6.89705 5.16167 7.87463 4.3708 9.1922 3.82839L9.19227 3.82855L9.19472 3.82718C9.21126 3.81793 9.22614 3.80599 9.23875 3.79184L9.24057 3.79346L9.24371 3.78296C9.64862 2.42845 10.7549 1.52344 12 1.52344C13.2451 1.52344 14.3519 2.42845 14.7568 3.78436L14.7546 3.78499L14.7614 3.7929C14.7741 3.80768 14.7893 3.82009 14.8063 3.82954L14.8062 3.82969L14.8087 3.83074C15.9381 4.29537 16.7937 4.92352 17.4264 5.7508L17.4264 5.75082C18.2845 6.87067 18.7209 8.36521 18.7209 10.1897C18.7209 11.9563 18.8769 13.0304 19.1632 13.8197C19.4492 14.6082 19.8646 15.1107 20.379 15.7329L20.3815 15.7359Z" fill="#232321" stroke="#232321" stroke-width="0.046875"/>
</svg>